# xmcd CD database file
#
# Track frame offsets:
#	150
#	4011
#	19662
#	38507
#	65071
#	82946
#	113587
#	136820
#	156903
#	185424
#
# Disc length: 2728 seconds
#
# Revision: 0
# Processed by: cddbd v1.5.2PL0 Copyright (c) Steve Scherf et al.
# Submitted via: CDex 1.51
#
DISCID=6f0aa60a
DTITLE=David Lanz - Here Comes The Sun
DYEAR=2012
DGENRE=New Age
TTITLE0=Prelude Sunrise Follows Moon
TTITLE1=Here Comes The Sun
TTITLE2=Help!
TTITLE3=Mother Natures Son
TTITLE4=For No One
TTITLE5=Theres A Place
TTITLE6=Please Please Me
TTITLE7=Penny Lane
TTITLE8=I Am The Walrus
TTITLE9=Sir George
EXTD=YEAR: 2012
EXTT0=
EXTT1=
EXTT2=
EXTT3=
EXTT4=
EXTT5=
EXTT6=
EXTT7=
EXTT8=
EXTT9=
PLAYORDER=
